<svg width="79" height="41" viewBox="0 0 79 41" fill="none" xmlns="http://www.w3.org/2000/svg">
<path d="M5.08173 37.6553L0.8349 19.1418C0.388398 17.1953 1.72416 15.2901 3.70625 15.0464L24.344 12.5084C26.2228 12.2774 27.9229 13.6398 28.1068 15.5239L29.9649 34.57C30.144 36.4052 28.8139 38.0431 26.981 38.2445L8.73199 40.2499C7.03315 40.4366 5.46385 39.3211 5.08173 37.6553Z" fill="#FF3162"/>
<path d="M11.4258 25.8781C11.8656 24.1737 12.3207 22.8695 12.7911 21.9656C13.2707 21.0605 13.8047 20.5692 14.3932 20.4918C14.9542 20.4179 15.573 20.7481 16.2497 21.4822C16.9355 22.2152 17.7179 23.3611 18.5967 24.92C19.7456 26.9672 20.386 28.492 20.518 29.4943C20.6233 30.2943 20.426 30.8208 19.926 31.0737C19.8481 31.1214 19.7494 31.1531 19.6298 31.1689C19.0137 31.25 18.2693 30.7118 17.3966 29.5544C17.0552 29.9455 16.443 30.1992 15.5603 30.3154C14.7418 30.4231 14.1455 30.3707 13.7714 30.158C13.2514 31.3958 12.688 32.0547 12.0811 32.1346C11.9707 32.1491 11.8626 32.1447 11.7566 32.1212C11.1874 31.9903 10.8507 31.5295 10.7466 30.7386C10.6159 29.7455 10.8423 28.1253 11.4258 25.8781ZM14.4914 27.846C14.7508 27.7557 15.0231 27.6918 15.3081 27.6543C15.6208 27.6131 15.9095 27.6032 16.1742 27.6245C15.8644 27.0478 15.5939 26.4847 15.3625 25.9352C15.1299 25.3764 14.9786 24.9379 14.9086 24.6197C14.9246 24.9544 14.8926 25.4217 14.8125 26.0216C14.7405 26.6111 14.6334 27.2192 14.4914 27.846Z" fill="white"/>
<path d="M73.9183 37.6553L78.1651 19.1418C78.6116 17.1953 77.2758 15.2901 75.2937 15.0464L54.656 12.5084C52.7772 12.2774 51.0771 13.6398 50.8932 15.5239L49.0351 34.57C48.856 36.4052 50.1861 38.0431 52.019 38.2445L70.268 40.2499C71.9669 40.4366 73.5362 39.3211 73.9183 37.6553Z" fill="#34C759"/>
<path d="M63.9783 32.0108C62.7277 31.8462 61.8223 31.582 61.2621 31.2182C60.7007 30.8636 60.3507 30.289 60.2121 29.4943C60.0827 28.7008 60.1233 27.504 60.3339 25.9039C60.5543 24.2303 60.8164 23.0205 61.1204 22.2747C61.4244 21.5289 61.8803 21.051 62.4879 20.841C63.0968 20.6218 64.0174 20.5933 65.2496 20.7555C66.1784 20.8778 66.9918 21.1299 67.69 21.5118C68.3985 21.8858 68.9276 22.3437 69.2772 22.8855C69.6373 23.4194 69.778 23.9852 69.6993 24.5829C69.6388 25.0427 69.4623 25.4592 69.1699 25.8323C68.8788 26.1962 68.4978 26.4969 68.0268 26.7343C68.5582 27.1036 68.9518 27.5249 69.2075 27.9983C69.4645 28.4625 69.5597 28.9474 69.4931 29.4532C69.4132 30.0601 69.1251 30.5788 68.6287 31.0093C68.1323 31.4398 67.4792 31.7467 66.6692 31.9301C65.8592 32.1134 64.9623 32.1404 63.9783 32.0108ZM65.1216 23.433C64.6802 23.3749 64.3303 23.4036 64.0719 23.5193C63.8226 23.6362 63.6707 23.9015 63.6162 24.3153C63.5702 24.6647 63.6387 24.9263 63.8216 25.1001C64.0046 25.2739 64.3443 25.3935 64.8409 25.4588C65.2547 25.5133 65.6169 25.4628 65.9274 25.3072C66.2483 25.1436 66.4299 24.9009 66.4723 24.579C66.5558 23.9445 66.1056 23.5625 65.1216 23.433ZM64.5769 27.5711C64.1355 27.513 63.7855 27.5417 63.5271 27.6574C63.2778 27.7743 63.1259 28.0396 63.0715 28.4534C63.0254 28.8028 63.0939 29.0644 63.2769 29.2382C63.4598 29.412 63.7995 29.5316 64.2961 29.5969C64.7099 29.6514 65.0721 29.6009 65.3826 29.4453C65.7035 29.2817 65.8851 29.039 65.9275 28.7171C66.011 28.0826 65.5608 27.7006 64.5769 27.5711Z" fill="white"/>
<g filter="url(#filter0_d_667_2409)">
<circle cx="39.5452" cy="17.4358" r="17.4358" fill="#007AFF"/>
</g>
<path d="M32.5547 17.2586L37.4899 22.1938C37.7091 22.413 38.0645 22.413 38.2837 22.1938L46.4463 14.0312" stroke="white" stroke-width="4.49021" stroke-linecap="round" stroke-linejoin="round"/>
<defs>
<filter id="filter0_d_667_2409" x="20.9868" y="0" width="37.1162" height="37.1172" filterUnits="userSpaceOnUse" color-interpolation-filters="sRGB">
<feFlood flood-opacity="0" result="BackgroundImageFix"/>
<feColorMatrix in="SourceAlpha" type="matrix" values="0 0 0 0 0 0 0 0 0 0 0 0 0 0 0 0 0 0 127 0" result="hardAlpha"/>
<feOffset dy="1.12255"/>
<feGaussianBlur stdDeviation="0.561276"/>
<feComposite in2="hardAlpha" operator="out"/>
<feColorMatrix type="matrix" values="0 0 0 0 0 0 0 0 0 0 0 0 0 0 0 0 0 0 0.1 0"/>
<feBlend mode="normal" in2="BackgroundImageFix" result="effect1_dropShadow_667_2409"/>
<feBlend mode="normal" in="SourceGraphic" in2="effect1_dropShadow_667_2409" result="shape"/>
</filter>
</defs>
</svg>
