<svg width="342" height="342" viewBox="0 0 342 342" fill="none" xmlns="http://www.w3.org/2000/svg">
<path d="M36.2191 240.073L18.975 164.899C17.384 157.963 22.1437 151.174 29.2065 150.306L112.939 140.009C119.634 139.185 125.692 144.04 126.347 150.754L133.891 228.089C134.529 234.628 129.79 240.465 123.259 241.182L49.2261 249.318C43.1726 249.983 37.5807 246.008 36.2191 240.073Z" fill="#FF3162"/>
<path d="M62.3761 192.152C63.9434 186.078 65.565 181.431 67.2411 178.21C68.95 174.985 70.853 173.234 72.9501 172.958C74.9489 172.695 77.1539 173.872 79.5651 176.488C82.0091 179.1 84.7968 183.183 87.9282 188.738C92.0221 196.032 94.3042 201.466 94.7744 205.037C95.1497 207.888 94.4466 209.764 92.6652 210.665C92.3875 210.835 92.0357 210.948 91.6097 211.004C89.4143 211.293 86.7617 209.376 83.6519 205.251C82.4353 206.645 80.2542 207.549 77.1085 207.963C74.1922 208.347 72.0675 208.16 70.7343 207.402C68.8815 211.813 66.8738 214.161 64.7111 214.445C64.3179 214.497 63.9325 214.481 63.5548 214.398C61.5266 213.931 60.327 212.289 59.956 209.471C59.4901 205.932 60.2968 200.159 62.3761 192.152ZM73.2999 199.164C74.2243 198.842 75.1944 198.614 76.2102 198.481C77.3242 198.334 78.353 198.299 79.2963 198.374C78.1924 196.32 77.2282 194.313 76.4037 192.355C75.5749 190.364 75.0359 188.801 74.7866 187.668C74.8436 188.86 74.7294 190.525 74.4442 192.663C74.1873 194.763 73.8059 196.93 73.2999 199.164Z" fill="white"/>
<path d="M306.279 240.073L323.523 164.899C325.114 157.963 320.354 151.174 313.292 150.306L229.559 140.009C222.864 139.185 216.806 144.04 216.151 150.754L208.607 228.089C207.969 234.628 212.708 240.465 219.239 241.182L293.272 249.318C299.325 249.983 304.917 246.008 306.279 240.073Z" fill="#34C759"/>
<path d="M267.496 216.128C263.04 215.541 259.813 214.6 257.817 213.303C255.817 212.04 254.57 209.992 254.076 207.161C253.615 204.333 253.759 200.068 254.51 194.367C255.295 188.403 256.229 184.093 257.312 181.435C258.396 178.778 260.02 177.075 262.185 176.326C264.355 175.545 267.635 175.444 272.026 176.022C275.336 176.457 278.234 177.356 280.722 178.717C283.247 180.049 285.132 181.681 286.378 183.612C287.661 185.514 288.162 187.53 287.882 189.66C287.666 191.298 287.037 192.782 285.995 194.112C284.958 195.409 283.6 196.48 281.922 197.326C283.816 198.642 285.218 200.143 286.129 201.83C287.045 203.484 287.384 205.212 287.147 207.014C286.862 209.177 285.836 211.025 284.067 212.559C282.298 214.093 279.971 215.187 277.084 215.84C274.198 216.493 271.002 216.589 267.496 216.128ZM271.57 185.562C269.997 185.355 268.75 185.458 267.829 185.87C266.941 186.286 266.4 187.232 266.206 188.706C266.042 189.951 266.286 190.884 266.938 191.503C267.59 192.122 268.8 192.548 270.57 192.781C272.044 192.975 273.335 192.795 274.441 192.241C275.584 191.658 276.232 190.793 276.383 189.646C276.68 187.385 275.076 186.024 271.57 185.562ZM269.629 200.308C268.056 200.101 266.809 200.203 265.888 200.615C265 201.032 264.459 201.977 264.265 203.452C264.101 204.697 264.345 205.629 264.996 206.248C265.648 206.867 266.859 207.293 268.628 207.526C270.103 207.72 271.393 207.54 272.5 206.986C273.643 206.403 274.29 205.538 274.441 204.391C274.739 202.13 273.135 200.769 269.629 200.308Z" fill="white"/>
<g filter="url(#filter0_d_667_2386)">
<circle cx="171.425" cy="159.529" r="68.529" fill="#007AFF"/>
</g>
<path d="M143.949 158.835L163.492 178.378C164.273 179.159 165.54 179.159 166.321 178.378L198.548 146.15" stroke="white" stroke-width="16" stroke-linecap="round" stroke-linejoin="round"/>
<defs>
<filter id="filter0_d_667_2386" x="98.8965" y="91" width="145.059" height="145.058" filterUnits="userSpaceOnUse" color-interpolation-filters="sRGB">
<feFlood flood-opacity="0" result="BackgroundImageFix"/>
<feColorMatrix in="SourceAlpha" type="matrix" values="0 0 0 0 0 0 0 0 0 0 0 0 0 0 0 0 0 0 127 0" result="hardAlpha"/>
<feOffset dy="4"/>
<feGaussianBlur stdDeviation="2"/>
<feComposite in2="hardAlpha" operator="out"/>
<feColorMatrix type="matrix" values="0 0 0 0 0 0 0 0 0 0 0 0 0 0 0 0 0 0 0.1 0"/>
<feBlend mode="normal" in2="BackgroundImageFix" result="effect1_dropShadow_667_2386"/>
<feBlend mode="normal" in="SourceGraphic" in2="effect1_dropShadow_667_2386" result="shape"/>
</filter>
</defs>
</svg>
